<svg width="12" height="13" viewBox="0 0 12 13" version="1.1" xmlns="http://www.w3.org/2000/svg" xmlns:xlink="http://www.w3.org/1999/xlink">
<title>close</title>
<desc>Created using Figma</desc>
<g id="Canvas" transform="translate(3857 -1196)">
<g id="close">
<use xlink:href="#path0_fill" transform="translate(-3857 1196)" fill="#FFFFFF"/>
</g>
</g>
<defs>
<path id="path0_fill" fill-rule="evenodd" d="M 7.69462 5.9947L 11.6676 2.0227C 12.0723 1.54373 12.04 0.834009 11.5934 0.393815C 11.1468 -0.0463785 10.4365 -0.0686487 9.96319 0.342703L 6.0022 4.3027L 2.05321 0.354703C 1.75089 0.0503121 1.3091 -0.0697094 0.894267 0.0398487C 0.479431 0.149407 0.154569 0.4719 0.0420549 0.885849C -0.0704595 1.2998 0.0464669 1.74231 0.348789 2.0467L 4.30978 6.0067L 0.360792 9.9547C 0.0584699 10.2591 -0.0584564 10.7016 0.054058 11.1156C 0.166572 11.5295 0.491434 11.852 0.906271 11.9616C 1.32111 12.0711 1.76289 11.9511 2.06522 11.6467L 6.0022 7.6867L 9.95118 11.6347C 10.4164 12.0843 11.1544 12.0843 11.6196 11.6347C 11.8507 11.4302 11.9879 11.1399 11.9992 10.8316C 12.0106 10.5232 11.8951 10.2237 11.6796 10.0027L 7.69462 5.9947Z"/>
</defs>
</svg>
